<svg version="1.0" xmlns="http://www.w3.org/2000/svg" width="210.000000px" height="50.000000px" viewBox="0 0 210.000000 50.000000" preserveAspectRatio="xMidYMid meet">
    <metadata>
        Created by potrace 1.12, written by Peter Selinger 2001-2015
        Resized by Nolan, cause the sizing was terrible
    </metadata>
    <g transform="translate(0.000000,50.000000) scale(0.030000,-0.030000)" fill="#4586cd" stroke="none">
        <path
            d="M5092 1275 c3 -39 4 -40 48 -45 l45 -5 3 -114 c3 -143 0 -153 -36
-119 -43 41 -72 51 -142 51 -78 1 -132 -28 -178 -95 -51 -76 -57 -103 -57
-243 1 -146 10 -177 70 -244 62 -69 186 -89 274 -45 17 9 36 24 41 35 17 30
38 23 42 -14 l3 -32 95 0 95 0 3 29 c4 36 -5 45 -57 54 l-42 7 1 410 1 410
-106 0 -106 0 3 -40z m58 -365 l40 -40 0 -150 0 -150 -40 -40 c-39 -39 -42
-40 -105 -40 -78 0 -107 15 -138 74 -30 56 -31 217 -3 289 28 71 66 97 144 97
59 0 64 -2 102 -40z"></path>
        <path
            d="M5804 1311 c-9 -10 -3 -59 9 -69 7 -6 30 -12 52 -14 l40 -3 3 -114
c3 -143 0 -153 -36 -119 -35 33 -58 44 -107 52 -117 20 -221 -54 -259 -183
-22 -76 -22 -240 1 -304 20 -55 72 -121 112 -141 76 -39 181 -30 240 20 21 19
42 34 44 34 3 0 7 -15 9 -32 l3 -33 100 0 100 0 0 35 c0 34 -2 35 -48 45 l-48
10 -2 410 -2 410 -103 0 c-57 0 -106 -2 -108 -4z m60 -402 l46 -41 0 -149 0
-149 -40 -40 c-39 -39 -42 -40 -106 -40 -103 0 -138 32 -160 147 -9 47 -9 79
0 135 21 131 62 177 157 178 52 0 60 -3 103 -41z"></path>
        <path
            d="M1505 1264 c-88 -21 -143 -52 -211 -119 -45 -45 -67 -77 -86 -125
-44 -112 -48 -133 -48 -257 0 -174 37 -278 134 -381 49 -52 91 -80 166 -110
54 -22 262 -21 323 1 63 23 116 50 149 79 l27 23 2 180 2 180 -149 0 -149 0 0
-50 0 -50 80 -5 80 -5 0 -110 0 -110 -28 -13 c-85 -41 -202 -52 -276 -26 -100
34 -145 77 -195 184 -30 63 -30 69 -30 210 0 140 1 147 30 210 39 84 84 134
148 168 45 23 63 26 151 26 85 1 106 -3 142 -22 51 -26 54 -31 73 -107 l16
-60 47 -3 47 -3 0 90 0 90 -37 30 c-51 42 -111 69 -194 86 -85 18 -135 18
-214 -1z"></path>
        <path
            d="M2405 1264 c-161 -39 -245 -130 -245 -267 0 -53 5 -71 29 -110 50
-77 147 -135 301 -177 131 -36 186 -66 221 -124 35 -57 18 -142 -37 -185 -32
-25 -120 -51 -174 -51 -54 0 -140 25 -182 53 -35 24 -44 44 -53 119 -6 48 -6
48 -46 49 -21 1 -45 2 -51 3 -10 1 -13 -23 -12 -94 2 -87 4 -97 27 -120 27
-27 109 -71 167 -90 54 -17 189 -23 253 -11 104 19 180 65 224 134 24 36 27
53 28 122 0 70 -3 86 -28 128 -47 80 -146 140 -293 178 -99 25 -171 59 -209
99 -26 27 -30 39 -30 90 0 52 4 63 30 90 53 56 79 65 195 64 92 0 111 -4 150
-25 47 -25 55 -41 65 -121 6 -48 6 -48 46 -49 21 -1 44 -2 50 -3 8 -1 12 29
14 91 2 108 0 111 -101 162 -114 58 -225 72 -339 45z"></path>
        <path
            d="M558 1262 l-168 -2 0 -44 0 -44 55 -8 56 -9 0 -388 c0 -213 -3 -392
-6 -397 -3 -4 -28 -11 -55 -15 l-50 -7 0 -44 0 -44 358 2 357 3 0 110 0 110
-55 -1 -55 0 -5 -55 -5 -54 -175 0 -175 0 0 390 0 390 55 10 55 10 0 44 c0 25
-4 45 -10 45 -5 1 -85 0 -177 -2z"></path>
        <path
            d="M3247 1243 c-12 -11 -8 -51 5 -59 7 -4 28 -10 48 -14 l35 -5 0 -334
0 -334 -45 -11 c-43 -10 -45 -13 -45 -46 l0 -35 210 -3 c252 -4 319 7 398 62
62 45 92 154 67 246 -14 52 -85 130 -119 130 -28 0 -27 28 2 40 30 13 49 29
72 65 25 38 26 136 2 181 -26 50 -90 99 -147 112 -55 13 -472 17 -483 5z m463
-98 c49 -25 70 -62 70 -121 0 -42 -5 -59 -26 -83 -35 -41 -81 -53 -199 -49
l-100 3 -3 119 c-1 66 0 126 2 133 8 19 217 18 256 -2z m22 -354 c56 -24 88
-79 87 -147 -1 -64 -25 -104 -79 -131 -40 -20 -58 -22 -165 -20 l-120 2 -3
145 c-1 79 0 150 2 157 9 22 224 18 278 -6z"></path>
        <path
            d="M4015 1031 c-10 -9 -5 -57 7 -69 7 -7 24 -12 39 -12 l27 0 4 -202 c5
-225 12 -256 78 -312 38 -32 69 -41 140 -41 66 0 121 24 150 65 29 41 38 38
42 -12 l3 -43 85 0 85 0 0 35 c0 31 -4 36 -35 46 l-35 12 -1 268 -1 268 -99 1
-99 0 -3 -31 c-4 -36 11 -51 53 -56 l30 -3 3 -187 2 -188 -40 -40 c-39 -39
-41 -40 -113 -40 -64 0 -76 3 -94 23 -37 41 -43 82 -43 306 l0 217 -90 0 c-50
0 -93 -2 -95 -5z"></path>
        <path
            d="M6170 1002 c0 -25 5 -35 23 -41 13 -5 28 -15 34 -22 5 -8 52 -122
103 -254 51 -132 97 -245 102 -252 6 -7 5 -19 0 -30 -5 -10 -23 -44 -38 -76
-36 -73 -46 -81 -97 -82 -41 0 -42 -1 -48 -40 -8 -46 0 -55 51 -55 123 0 159
43 260 315 29 77 56 149 60 160 5 11 20 52 33 90 14 39 29 79 33 90 4 11 17
47 29 80 15 41 28 61 41 64 32 5 44 22 44 57 l0 33 -127 -2 -128 -2 -3 -30
c-4 -33 18 -55 56 -55 19 0 23 -4 17 -17 -4 -10 -14 -38 -22 -63 -9 -25 -20
-54 -24 -65 -23 -58 -59 -176 -59 -192 0 -11 -6 -28 -14 -39 -12 -16 -15 -16
-19 -4 -26 86 -62 197 -67 205 -4 6 -15 38 -25 73 -10 35 -22 65 -27 68 -17
11 -7 24 28 39 31 13 35 18 32 47 l-3 32 -123 0 -122 1 0 -33z"></path>
        <path d="M3204 236 c-3 -8 -4 -27 -2 -43 l3 -28 1448 -3 1447 -2 0 45 0 45
-1445 0 c-1237 0 -1446 -2 -1451 -14z"></path>
    </g>
</svg>
